<?xml version="1.0" standalone="no"?>
<!DOCTYPE svg PUBLIC "-//W3C//DTD SVG 20010904//EN"
 "http://www.w3.org/TR/2001/REC-SVG-20010904/DTD/svg10.dtd">
<svg version="1.0" xmlns="http://www.w3.org/2000/svg"
 width="192.000000pt" height="192.000000pt" viewBox="0 0 192.000000 192.000000"
 preserveAspectRatio="xMidYMid meet">
<metadata>
Created by potrace 1.14, written by Peter Selinger 2001-2017
</metadata>
<g transform="translate(0.000000,192.000000) scale(0.100000,-0.100000)"
fill="#000000" stroke="none">
<path d="M925 1912 c-11 -2 -32 -13 -46 -23 -14 -10 -28 -16 -31 -14 -2 2 -17
-7 -32 -20 -16 -14 -33 -25 -37 -25 -4 0 -42 -20 -83 -45 -42 -25 -81 -45 -86
-45 -6 0 -10 -4 -10 -9 0 -5 -11 -12 -25 -15 -14 -4 -25 -11 -25 -16 0 -6 -4
-10 -10 -10 -5 0 -32 -13 -60 -30 -27 -16 -50 -27 -50 -24 0 2 -10 -5 -22 -16
-13 -11 -33 -23 -45 -26 -13 -4 -23 -10 -23 -14 0 -4 -12 -13 -27 -19 -16 -6
-46 -22 -68 -36 -22 -14 -50 -29 -61 -34 -12 -5 -31 -22 -43 -38 -11 -15 -25
-33 -31 -40 -6 -8 -10 -172 -10 -457 l0 -444 43 -44 c24 -23 61 -52 82 -63 22
-11 42 -22 45 -25 3 -3 19 -12 35 -20 17 -8 32 -17 35 -20 3 -3 19 -12 35 -20
17 -8 32 -17 35 -20 5 -5 34 -22 99 -57 19 -10 40 -22 45 -26 6 -4 56 -33 111
-64 55 -31 103 -61 107 -67 4 -6 8 -7 8 -3 0 5 13 -1 29 -12 16 -12 34 -21 40
-21 6 0 11 -3 11 -8 0 -14 63 -35 106 -35 29 0 51 7 64 18 11 10 20 15 20 11
0 -4 12 1 28 12 15 10 48 31 73 44 77 43 94 53 99 58 3 3 19 12 35 20 17 8 32
17 35 20 3 3 14 10 25 16 48 26 115 64 172 98 34 20 66 36 73 36 6 0 8 5 4 12
-5 8 -2 9 9 5 10 -3 17 -3 17 1 0 6 57 44 70 47 17 3 90 52 90 59 0 6 10 21
23 34 12 14 15 22 7 17 -12 -6 -13 -5 -2 6 9 10 12 114 12 447 l0 433 -27 35
c-24 32 -179 134 -203 134 -6 0 -10 5 -10 10 0 6 -5 10 -11 10 -6 0 -24 9 -40
21 -16 11 -29 17 -29 12 0 -4 -4 -3 -8 3 -4 6 -50 34 -102 64 -52 29 -106 60
-120 68 -14 9 -27 15 -29 13 -2 -1 -7 1 -10 6 -3 5 -54 37 -113 70 -102 59
-149 74 -193 65z m72 -155 c7 0 10 -3 8 -7 -3 -4 15 -16 38 -26 23 -10 44 -21
47 -24 9 -10 202 -120 211 -120 5 0 9 -4 9 -10 0 -5 4 -10 10 -10 5 0 44 -20
86 -45 41 -25 80 -45 85 -45 5 0 9 -4 9 -10 0 -5 6 -10 14 -10 8 0 22 -8 32
-17 10 -10 20 -17 23 -15 3 2 7 -1 9 -7 2 -6 -5 -14 -15 -18 -10 -3 -20 -9
-23 -13 -3 -4 -30 -20 -60 -36 -30 -16 -57 -31 -60 -34 -3 -3 -20 -13 -38 -23
-32 -18 -33 -18 -75 5 -23 13 -44 25 -47 28 -5 5 -19 13 -99 58 -25 14 -62 35
-82 48 -20 13 -40 20 -43 17 -3 -4 -6 -2 -6 3 0 5 -17 18 -37 29 -21 11 -40
22 -43 25 -3 3 -14 10 -25 16 -86 46 -111 60 -115 64 -3 3 -18 12 -35 20 -16
8 -36 21 -43 28 -11 10 -11 12 2 12 9 0 16 5 16 10 0 6 4 10 10 10 9 0 69 34
140 79 14 8 28 16 32 16 3 0 10 4 14 8 4 4 15 5 23 1 9 -3 21 -7 28 -7z m-356
-249 c3 -5 8 -8 10 -7 2 2 32 -14 67 -34 35 -20 67 -37 73 -37 5 0 9 -3 9 -8
0 -4 15 -14 33 -21 17 -8 38 -21 45 -28 8 -7 18 -11 23 -8 5 4 9 2 9 -3 0 -4
17 -17 38 -28 56 -31 86 -48 92 -54 3 -3 16 -11 30 -17 54 -26 123 -69 124
-77 0 -5 -12 -16 -29 -25 -16 -9 -69 -40 -117 -68 -79 -48 -118 -58 -118 -32
0 5 -4 9 -9 9 -12 0 -294 162 -302 173 -3 5 -10 9 -15 9 -5 1 -26 12 -46 24
-21 13 -40 24 -43 24 -3 0 -32 17 -63 37 -31 20 -61 36 -66 35 -5 -2 -12 1
-15 6 -3 5 -15 14 -26 19 -18 10 -17 13 18 29 20 10 37 21 37 26 0 4 4 8 9 8
5 0 44 20 87 44 76 44 78 44 108 29 17 -9 34 -20 37 -25z m-101 -386 c25 -13
52 -31 61 -38 8 -8 23 -14 32 -14 9 0 17 -4 17 -9 0 -5 9 -12 19 -16 11 -3 36
-17 55 -30 20 -13 36 -21 36 -17 0 4 4 2 8 -4 4 -6 32 -25 62 -41 l55 -31 3
-358 c1 -232 -1 -361 -8 -368 -7 -7 -10 -6 -10 2 0 7 -9 12 -20 12 -11 0 -20
4 -20 8 0 5 -12 14 -26 21 -14 6 -67 36 -117 65 -51 30 -96 54 -101 54 -5 0
-12 4 -15 9 -7 11 -200 123 -211 123 -5 0 -10 3 -12 8 -1 4 -24 18 -50 32
l-48 25 0 367 0 367 123 -71 c67 -39 142 -82 167 -96z m1118 -568 c-20 -19
-238 -143 -238 -136 0 4 -5 0 -10 -8 -5 -8 -13 -15 -17 -15 -8 -1 -63 -34 -73
-45 -3 -3 -11 -6 -19 -8 -8 -2 -27 -12 -42 -23 -15 -10 -32 -19 -38 -19 -6 0
-11 -4 -11 -9 0 -5 -8 -11 -17 -14 -22 -7 -124 -65 -137 -78 -6 -5 -14 -9 -18
-9 -4 0 -8 163 -8 361 0 407 -6 375 80 414 22 10 40 22 40 27 0 4 9 8 20 8 11
0 20 4 20 8 0 10 50 37 63 34 4 -1 7 2 7 6 0 4 22 19 50 33 27 13 50 27 50 30
0 3 18 14 40 24 22 10 40 23 40 28 0 6 3 7 6 4 4 -4 19 1 33 11 49 32 66 42
88 51 11 6 24 15 28 21 3 5 11 8 16 5 5 -4 9 -2 9 3 0 5 10 13 23 19 l22 10 3
-361 c2 -280 -1 -363 -10 -372z"/>
</g>
</svg>
